<svg xmlns="http://www.w3.org/2000/svg" viewBox="0 0 300 300" role="img" aria-label="Masaar"><title>Masaar</title><path d="M192.02,44.57c1.99,-0.2 4,0.27 5.69,1.35c2.22,1.42 3.7,3.74 4.04,6.35c0.34,2.61 -0.49,5.23 -2.27,7.17c-2.39,2.6 -6.08,3.54 -9.42,2.4c-3.34,-1.14 -5.69,-4.14 -5.99,-7.66c-0.06,-0.67 -0.04,-1.35 0.06,-2.01c0.57,-4.05 3.84,-7.19 7.91,-7.6z" fill="#E07A5F"/><path d="M155.32,49.62c2.07,0.03 4.4,-0.3 6.44,-0.26c5.83,0.1 12.66,0.64 18.35,1.94l4.02,0.87c-0.1,0.67 -0.11,1.34 -0.06,2.01c-16.53,-3.97 -36.37,-2.42 -51.23,6.4c-5.27,3.13 -15.3,11.82 -10.22,18.74c5.78,7.87 18.75,11.02 27.38,14.77c10.06,3.59 20.15,7.04 29.87,11.5c8.69,4.33 19.11,10.11 22.18,19.79c5.32,16.78 -12.86,31.18 -27.05,35.32c-14.39,4.19 -34.9,4.6 -48.45,-1.67c0.28,-0.98 0.21,-1.38 0.2,-2.39c1.3,0.57 2.85,1.23 4.25,1.49c0.44,0.17 0.68,0.25 1.14,0.37c1.68,0.41 3.3,0.77 5.04,0.95c7.99,0.91 16.24,0.08 23.98,-2.06c8.02,-2.22 17.68,-6.55 21.9,-14.09c1.47,-2.63 2.09,-5.72 1.23,-8.66c-3.47,-11.81 -32.54,-21.16 -43.17,-25.31c-5.83,-2.28 -11.65,-4.62 -17.14,-7.65c-6.39,-3.53 -13.17,-8.43 -15.24,-15.8c-1.26,-4.47 -0.29,-9.22 1.98,-13.21c6.47,-11.35 21.48,-17.85 33.57,-21.14c4.14,-1.02 6.83,-1.35 11.05,-1.91z" fill="#0F5B55"/><path d="M126.53,159.03l-0.3,0.39c-0.88,1.15 -1.96,2.16 -2.96,3.2c-2.39,2.48 -5.32,6.37 -8.83,2.89c-2.02,-2 -4.39,-4.05 -5.91,-6.44c-1.08,-1.71 0.17,-3.55 1.34,-4.82c8.34,-9.35 8.72,-6.53 16.03,0.94c0.28,0.48 0.56,0.96 0.84,1.44c0.01,1.01 0.07,1.41 -0.2,2.39z" fill="#3FA39A"/><path d="M75.38,231.42l3.78,-1.27c1.84,6.83 2.3,12.67 -2.01,18.47c-0.11,0.15 -0.08,0.11 -0.14,0.28c-2.04,2.01 -2.66,2.63 -5.22,3.74c-2.33,0.78 -3.35,0.8 -5.84,0.83c-0.33,-0.53 -0.18,-3.19 -0.17,-3.99c2.7,0.02 4.13,-0.04 6.44,-1.6c5.36,-4.57 4.83,-10.2 3.16,-16.45z" fill="#0F5B55"/><path d="M85.76,218.4l3.9,0.01c0.03,3.72 0.03,7.44 0.01,11.16c-0.01,2.57 -0.13,5.31 0.23,7.85c0.17,1.22 1.38,2.04 2.55,2.14c3.56,0.2 7.16,0.06 10.73,0.06l22.86,0l29.6,0.01c7.4,0.04 6.1,-1.76 6.09,-8.3l3.91,-0.01c0,1.37 -0.48,6.61 0.77,7.46c2.95,2 7.43,0.93 6.82,-3.47c-0.12,-0.91 -0.01,-3.48 0.01,-4.62l3.85,-0.02c0.03,3.44 -1.32,8.91 3.24,9.02c5.07,0.13 4.35,-3.11 4.37,-6.94c0,-1.43 0,-2.86 0,-4.26c0.77,0 1.38,-0.04 2.14,-0.1c0.61,0.02 1.15,0.03 1.75,0.01c0.03,2.79 -0.14,6.13 0.04,8.83c0.19,2.82 4.78,2.52 6.67,2.37c1.66,-0.12 3.43,-0.94 4.32,-2.4c0.05,-0.05 0.1,-0.1 0.16,-0.15c3.55,-4.59 5.63,-12.47 12.62,-12.58c5.71,-0.09 9.78,5.52 9.37,10.88c-0.94,12.15 -12.1,8.75 -18.53,3.74c-3.66,4.94 -7.95,5.14 -13.88,4.18c-1,-0.16 -2.12,-1.04 -2.84,-1.74c-2.93,2.94 -8.57,2.91 -11.52,0c-2.51,2.63 -8.26,2.99 -10.87,0.49c-0.17,-0.17 -0.34,-0.34 -0.5,-0.51c-2.16,2.16 -3.98,2.1 -6.87,2.1l-45.24,-0.01l-12.7,0.01c-3.27,0.01 -8.62,0.62 -11,-1.87c-2.64,-2.77 -2.1,-7.86 -2.1,-11.48z" fill="#0F5B55"/><path d="M164.43,209.75c-2.65,-2.52 -4.09,-5.15 -4.2,-8.88c-0.11,-3.27 1.1,-6.45 3.35,-8.82c2.24,-2.31 5.32,-3.63 8.53,-3.65c3.16,-0.04 5.86,0.92 8.11,3.15c0.27,0.27 0.53,0.54 0.78,0.83l0,-3.46l3.99,0.02l0.02,23.16l-4.01,0.01c-0.01,-1.21 0,-2.43 0.03,-3.64c-2.07,2.5 -4.15,3.77 -7.46,4.06c-1.9,0.17 -3.82,-0.08 -5.62,-0.73c-1.57,-0.63 -2.15,-1.03 -3.51,-2.06z" fill="#0F5B55"/><path d="M114.38,211.84c-3.15,-1.38 -5.63,-3.49 -6.9,-6.77c-1.18,-3.11 -1.09,-6.56 0.24,-9.6c1.3,-2.93 3.72,-5.21 6.72,-6.33c4.72,-1.74 9.66,-0.55 12.94,3.26l0.01,-3.46l3.99,0.02l-0.01,23.14h-3.98l-0.01,-3.62c-2.07,2.61 -3.71,3.52 -7.09,3.99c-0.58,0.08 -1.59,0.07 -2.05,0.13c-1.44,-0.13 -2.5,-0.36 -3.87,-0.76z" fill="#0F5B55"/><path d="M202.26,188.44c3.84,-0.25 6.63,1.15 9.15,3.93c0.06,-1.14 0.05,-2.3 0.05,-3.44l3.94,0.01l-0.02,23.15l-3.97,0.01l0.03,-3.71c-0.7,1 -1.23,1.49 -2.13,2.27c-4.27,2.83 -10.33,2.48 -14.26,-0.8c-2.53,-2.07 -4.09,-5.09 -4.31,-8.35c-0.29,-3.32 0.78,-6.61 2.97,-9.12c2.34,-2.69 5.09,-3.72 8.55,-3.96z" fill="#0F5B55"/><path d="M67.55,180.37l4.4,0.01c4.15,6.71 8.19,13.95 12.13,20.8l12.08,-20.76l4.44,-0.05c-0.21,10.31 0,21.34 -0.03,31.72l-4.25,0.01c0.11,-7.82 0.05,-15.98 0.02,-23.8c-1.12,1.62 -2.45,4.15 -3.5,5.91c-2.7,4.52 -5.23,9.2 -7.93,13.72l-1.61,0.02c-3.2,-5.35 -6.17,-10.89 -9.43,-16.23c-0.63,0.38 -1.13,0.27 -1.89,0.24c0.01,0.52 0.11,2.37 -0.15,2.67c-0.14,5.65 -0.01,11.75 -0.03,17.45l-4.23,0.02z" fill="#0F5B55"/><path d="M144.33,188.57l0.29,-0.02c4.39,-0.3 7.21,0.56 10.53,3.45c-0.77,0.9 -1.54,1.79 -2.32,2.68c-2.34,-1.94 -4.33,-2.89 -7.43,-2.73c-1.88,0.1 -4.41,1.15 -4.08,3.38c0.43,2.95 5.79,2.97 8.03,3.76c1.62,0.57 3.02,0.86 4.34,2.04c2.6,2.12 2.43,6.45 0.23,8.8c-1.91,2.05 -4.66,2.54 -7.37,2.64c-4.25,0.03 -7.27,-1.14 -10.33,-4.05c0.84,-0.95 1.54,-1.81 2.32,-2.81c0.49,0.48 1.01,0.93 1.55,1.36c2.19,1.71 4.87,2.32 7.64,2.01c1.98,-0.16 4.22,-1.58 3.72,-3.88c-0.62,-2.55 -4.56,-2.84 -6.7,-3.38c-2.98,-0.75 -6.69,-1.65 -7.38,-5.21c-0.3,-1.54 0.04,-3.61 0.96,-4.92c1.42,-2 3.71,-2.74 6,-3.12z" fill="#0F5B55"/><path d="M231.89,188.58c0.61,-0.04 1.46,0.02 2.09,0.05l0,3.85c-0.43,-0.02 -0.86,-0.03 -1.29,-0.04c-2.01,-0.02 -3.67,0.44 -5.14,1.9c-2.7,2.68 -2.2,7.13 -2.2,10.7c0.01,2.35 0,4.7 -0.03,7.05c-0.87,0.02 -3.11,0.23 -3.81,-0.18c-0.18,-0.1 -0.13,-0.52 -0.15,-0.8l0,-22.19l3.96,0.03l0,3.91c1.69,-2.74 3.33,-3.89 6.57,-4.29z" fill="#0F5B55"/></svg>
