<svg xmlns="http://www.w3.org/2000/svg" viewBox="85 36 140 140" role="img" aria-label="Masaar"><title>Masaar</title><path d="M192.02,44.57c1.99,-0.2 4,0.27 5.69,1.35c2.22,1.42 3.7,3.74 4.04,6.35c0.34,2.61 -0.49,5.23 -2.27,7.17c-2.39,2.6 -6.08,3.54 -9.42,2.4c-3.34,-1.14 -5.69,-4.14 -5.99,-7.66c-0.06,-0.67 -0.04,-1.35 0.06,-2.01c0.57,-4.05 3.84,-7.19 7.91,-7.6z" fill="#E07A5F"/><path d="M155.32,49.62c2.07,0.03 4.4,-0.3 6.44,-0.26c5.83,0.1 12.66,0.64 18.35,1.94l4.02,0.87c-0.1,0.67 -0.11,1.34 -0.06,2.01c-16.53,-3.97 -36.37,-2.42 -51.23,6.4c-5.27,3.13 -15.3,11.82 -10.22,18.74c5.78,7.87 18.75,11.02 27.38,14.77c10.06,3.59 20.15,7.04 29.87,11.5c8.69,4.33 19.11,10.11 22.18,19.79c5.32,16.78 -12.86,31.18 -27.05,35.32c-14.39,4.19 -34.9,4.6 -48.45,-1.67c0.28,-0.98 0.21,-1.38 0.2,-2.39c1.3,0.57 2.85,1.23 4.25,1.49c0.44,0.17 0.68,0.25 1.14,0.37c1.68,0.41 3.3,0.77 5.04,0.95c7.99,0.91 16.24,0.08 23.98,-2.06c8.02,-2.22 17.68,-6.55 21.9,-14.09c1.47,-2.63 2.09,-5.72 1.23,-8.66c-3.47,-11.81 -32.54,-21.16 -43.17,-25.31c-5.83,-2.28 -11.65,-4.62 -17.14,-7.65c-6.39,-3.53 -13.17,-8.43 -15.24,-15.8c-1.26,-4.47 -0.29,-9.22 1.98,-13.21c6.47,-11.35 21.48,-17.85 33.57,-21.14c4.14,-1.02 6.83,-1.35 11.05,-1.91z" fill="#0F5B55"/><path d="M126.53,159.03l-0.3,0.39c-0.88,1.15 -1.96,2.16 -2.96,3.2c-2.39,2.48 -5.32,6.37 -8.83,2.89c-2.02,-2 -4.39,-4.05 -5.91,-6.44c-1.08,-1.71 0.17,-3.55 1.34,-4.82c8.34,-9.35 8.72,-6.53 16.03,0.94c0.28,0.48 0.56,0.96 0.84,1.44c0.01,1.01 0.07,1.41 -0.2,2.39z" fill="#3FA39A"/></svg>
